<?xml version="1.0" standalone="no"?>
<!DOCTYPE svg PUBLIC "-//W3C//DTD SVG 20010904//EN"
 "http://www.w3.org/TR/2001/REC-SVG-20010904/DTD/svg10.dtd">
<svg version="1.0" xmlns="http://www.w3.org/2000/svg"
 width="512.000000pt" height="512.000000pt" viewBox="0 0 512.000000 512.000000"
 preserveAspectRatio="xMidYMid meet">
<metadata>
Created by potrace 1.16, written by Peter Selinger 2001-2019
</metadata>
<g transform="translate(0.000000,512.000000) scale(0.100000,-0.100000)"
fill="#FFFFFF" stroke="none">
<path d="M66 4791 c-46 -31 -66 -69 -66 -131 0 -62 20 -100 66 -131 27 -18 53
-19 366 -19 l337 0 14 -47 c8 -27 171 -596 362 -1266 l348 -1218 -41 -87 c-47
-99 -61 -153 -62 -232 0 -151 84 -306 212 -386 85 -54 141 -64 360 -64 l203
-1 -54 -19 c-118 -43 -207 -123 -264 -239 -31 -64 -32 -71 -32 -191 0 -120 1
-127 32 -191 58 -118 146 -197 269 -240 49 -17 77 -20 164 -17 95 3 112 7 175
38 92 44 171 123 216 215 33 68 34 73 34 195 0 120 -1 127 -32 191 -57 116
-146 196 -264 239 l-54 19 660 0 660 0 -54 -19 c-118 -43 -207 -123 -264 -239
-31 -64 -32 -71 -32 -191 0 -120 1 -127 32 -191 58 -118 146 -197 269 -240 49
-17 77 -20 164 -17 95 3 112 7 175 38 92 44 171 123 216 215 33 68 34 73 34
195 0 120 -1 127 -32 191 -57 116 -146 196 -264 239 l-54 19 280 1 c257 0 282
2 309 19 46 31 66 69 66 131 0 62 -20 100 -66 131 -28 18 -72 19 -1309 19
-847 0 -1295 4 -1325 11 -52 12 -87 40 -106 86 -20 47 -17 71 16 140 l29 63
1332 0 c1309 0 1332 0 1364 20 17 11 39 34 48 52 32 63 617 2135 617 2185 0
52 -21 92 -61 121 -22 16 -161 17 -1953 22 l-1929 5 -74 260 c-71 251 -75 261
-113 298 l-39 37 -428 0 c-402 0 -430 -1 -457 -19z m4694 -893 c-1 -7 -115
-411 -254 -898 l-253 -885 -1238 0 -1238 0 -253 885 c-139 487 -253 891 -254
898 0 9 355 12 1745 12 1390 0 1745 -3 1745 -12z m-2426 -3017 c43 -29 66 -70
66 -121 0 -80 -60 -140 -140 -140 -80 0 -140 60 -140 140 0 80 60 140 140 140
27 0 56 -8 74 -19z m1510 0 c43 -29 66 -70 66 -121 0 -80 -60 -140 -140 -140
-80 0 -140 60 -140 140 0 80 60 140 140 140 27 0 56 -8 74 -19z"/>
</g>
</svg>
